<?xml version="1.0" standalone="no"?><!DOCTYPE svg PUBLIC "-//W3C//DTD SVG 1.1//EN" "http://www.w3.org/Graphics/SVG/1.1/DTD/svg11.dtd"><svg t="1572060029247" class="icon" viewBox="0 0 1025 1024" version="1.1" xmlns="http://www.w3.org/2000/svg" p-id="4188" xmlns:xlink="http://www.w3.org/1999/xlink" width="200.1953125" height="200"><defs><style type="text/css"></style></defs><path d="M1013.7088 264.448l-121.6-93.696c-6.912-4.7616-16.5888-9.0112-26.6752-12.1344C855.296 155.4944 844.8 153.6 836.4032 153.6L486.4 153.6l41.0112 256 308.992 0c8.3968 0 18.8928-1.8944 28.9792-5.0176s19.8144-7.424 26.6752-12.0832l121.6-93.7984C1020.5696 294.0416 1024 287.8464 1024 281.6S1020.5696 269.1584 1013.7088 264.448zM435.2 51.2l-51.2 0C369.8688 51.2 358.4 62.6688 358.4 76.8L358.4 256 187.5968 256c-8.4992 0-18.944 1.8944-29.0304 5.0688C148.4288 264.1408 138.752 268.3904 131.8912 273.152l-121.6 93.696C3.3792 371.5072 0 377.7536 0 384c0 6.1952 3.3792 12.3904 10.2912 17.152l121.6 93.7984C138.752 499.6096 148.4288 503.9104 158.5664 506.9824 168.6528 510.1056 179.0976 512 187.5968 512L358.4 512l0 435.2C358.4 961.3312 369.8688 972.8 384 972.8l51.2 0C449.3312 972.8 460.8 961.3312 460.8 947.2l0-870.4C460.8 62.6688 449.3312 51.2 435.2 51.2z" p-id="4189" fill="#dbdbdb"></path></svg>