<?xml version="1.0" standalone="no"?><!DOCTYPE svg PUBLIC "-//W3C//DTD SVG 1.1//EN" "http://www.w3.org/Graphics/SVG/1.1/DTD/svg11.dtd"><svg t="1572070573066" class="icon" viewBox="0 0 1092 1024" version="1.1" xmlns="http://www.w3.org/2000/svg" p-id="6694" xmlns:xlink="http://www.w3.org/1999/xlink" width="213.28125" height="200"><defs><style type="text/css"></style></defs><path d="M1023.992235 341.31291c37.682914 0 68.266149 30.651501 68.266149 68.266149v546.129192c0 37.614648-30.583235 68.266149-68.266149 68.266149H68.266149c-37.682914 0-68.266149-30.651501-68.266149-68.266149v-546.129192c0-37.614648 30.583235-68.266149 68.266149-68.266149h136.532298c18.841457 0 34.133074 15.291617 34.133074 34.133075s-15.291617 34.133074-34.133074 34.133074H68.266149v546.129192h955.726086v-546.129192H750.927639c-18.841457 0-34.133074-15.291617-34.133075-34.133074s15.291617-34.133074 34.133075-34.133075h273.064596z m-170.665373 204.798447c18.841457 0 34.133074 15.291617 34.133075 34.133075s-15.291617 34.133074-34.133075 34.133074H648.528415c-18.841457 0-34.133074-15.223351-34.133074-34.133074s15.291617-34.133074 34.133074-34.133075h204.798447z m0 204.798447c18.841457 0 34.133074 15.291617 34.133075 34.133075s-15.291617 34.133074-34.133075 34.133074H307.19767c-18.841457 0-34.133074-15.223351-34.133074-34.133074s15.291617-34.133074 34.133074-34.133075h546.129192z m-10.99085-644.36418a34.158674 34.158674 0 0 1 0 48.264167L745.875944 251.26986l-0.068266 0.068266-0.068267 0.068266L407.89024 589.255563c-3.754638 3.754638-8.32847 6.55355-13.380165 8.191938l-144.792502 48.264168c-3.54984 1.228791-7.167946 1.77492-10.786052 1.77492a34.27814 34.27814 0 0 1-24.166216-9.966858 34.141608 34.141608 0 0 1-8.260204-34.952268l48.264167-144.792502c1.706654-5.051695 4.573832-9.625527 8.32847-13.380166L697.54351 10.017289a34.158674 34.158674 0 0 1 48.264168 0l96.528334 96.528335z m-477.043849 428.711416l308.085131-308.085131-48.264168-48.264167-308.08513 308.08513-24.166217 72.430384 72.430384-24.166216z m356.349298-356.349298l48.264167-48.264167-48.264167-48.264168-48.264167 48.264168 48.264167 48.264167z" fill="#bfbfbf" p-id="6695"></path></svg>