<?xml version="1.0" standalone="no"?><!DOCTYPE svg PUBLIC "-//W3C//DTD SVG 1.1//EN" "http://www.w3.org/Graphics/SVG/1.1/DTD/svg11.dtd"><svg class="icon" width="200px" height="200.00px" viewBox="0 0 1024 1024" version="1.1" xmlns="http://www.w3.org/2000/svg"><path fill="#dbdbdb" d="M319.521032 96.421161 400.68129 96.421161C408.642065 44.428387 453.33471 4.492387 507.573677 4.492387 561.812645 4.492387 606.439226 44.428387 614.466065 96.421161L698.401032 96.421161 698.401032 228.252903 319.488 228.252903 319.488 96.421161 319.521032 96.421161ZM924.176516 890.252387C924.176516 957.968516 869.309935 1012.868129 801.626839 1012.868129L220.193032 1012.868129C152.443871 1012.868129 97.643355 957.968516 97.643355 890.252387L97.643355 221.580387C97.643355 153.89729 152.443871 99.03071 220.193032 99.03071L244.339613 99.03071 244.339613 309.512258 777.447226 309.512258 777.447226 99.03071 801.593806 99.03071C869.276903 99.03071 924.143484 153.89729 924.143484 221.580387L924.143484 890.252387 924.176516 890.252387Z" /></svg>