<?xml version="1.0" standalone="no"?><!DOCTYPE svg PUBLIC "-//W3C//DTD SVG 1.1//EN" "http://www.w3.org/Graphics/SVG/1.1/DTD/svg11.dtd"><svg t="1571993641307" class="icon" viewBox="0 0 1024 1024" version="1.1" xmlns="http://www.w3.org/2000/svg" p-id="1155" xmlns:xlink="http://www.w3.org/1999/xlink" width="200" height="200"><defs><style type="text/css"></style></defs><path d="M913.843134 302.744115c0.008186-4.178159-0.989537-8.40953-3.281743-12.260232l-117.731378-149.655462c-4.318352-7.242961-12.135388-11.685133-20.570501-11.685133l-117.731378 0-159.635767 0-245.439992 0c-8.43409 0-16.251126 4.442172-20.569478 11.685133l-117.731378 149.655462c-2.292206 3.850701-3.289929 8.082072-3.281743 12.260232l-0.094144 0 0 501.982856c0 49.231261 37.851073 87.799672 86.147032 87.799672l300.969703 0 159.635767 0 173.262112 0c48.295959 0 86.146009-38.568411 86.146009-87.799672l0-501.982856L913.843134 302.744115zM758.658749 177.034019l102.034884 125.710097L526.81952 302.744115 526.81952 177.034019l127.708614 0L758.658749 177.034019zM263.055185 177.034019l231.837182 0 0 125.710097L161.018254 302.744115 263.055185 177.034019zM827.790246 844.63489 654.528134 844.63489l-159.635767 0L193.922664 844.63489c-21.450545 0-38.256302-17.531282-38.256302-39.908942l0-454.092126 710.379163 0 0 454.092126C866.045525 827.103608 849.240791 844.63489 827.790246 844.63489z" p-id="1156"></path></svg>