<?xml version="1.0" standalone="no"?><!DOCTYPE svg PUBLIC "-//W3C//DTD SVG 1.1//EN" "http://www.w3.org/Graphics/SVG/1.1/DTD/svg11.dtd"><svg class="icon" width="200px" height="199.42px" viewBox="0 0 1027 1024" version="1.1" xmlns="http://www.w3.org/2000/svg"><path fill="#dbdbdb" d="M591.958184 557.92691c-6.803987-3.401993-17.009967-3.401993-23.813954 3.401994 0 0-10.20598 13.607973-51.0299 13.607973-37.421927 0-47.627907-13.607973-51.0299-13.607973-3.401993-6.803987-13.607973-10.20598-23.813954-3.401994-6.803987 3.401993-10.20598 17.009967-6.803987 23.813954 3.401993 3.401993 20.41196 30.61794 78.245848 30.61794s74.843854-27.215947 78.245847-30.61794c10.20598-6.803987 6.803987-17.009967 0-23.813954zM129.287087 779.056478c-3.401993-3.401993-10.20598 0-13.607973 0l-27.215947 13.607974c-27.215947 13.607973-47.627907 37.421927-54.431893 68.039867l-34.019934 139.481728c0 3.401993 0 10.20598 3.401993 13.607973s10.20598 6.803987 17.009967 6.803987h136.079734c3.401993 0 10.20598-3.401993 13.607974-6.803987s3.401993-6.803987 3.401993-10.20598c-3.401993-108.863787-20.41196-176.903654-34.019933-214.325582l-10.205981-10.20598zM1024.01134 1000.186047l-34.019934-132.677741c-6.803987-30.61794-27.215947-54.431894-54.431893-68.039867l-27.215947-13.607974c-3.401993-3.401993-10.20598-3.401993-13.607974 0l-10.20598 10.20598c-13.607973 37.421927-27.215947 102.059801-30.61794 207.521595 0 3.401993 0 10.20598 3.401994 13.607973 3.401993 3.401993 6.803987 6.803987 13.607973 6.803987h136.079734c6.803987 0 10.20598-3.401993 13.607974-6.803987 3.401993-6.803987 3.401993-13.607973 3.401993-17.009966zM554.536257 717.820598l-40.82392 27.215947-40.823921-27.215947c-6.803987-3.401993-13.607973-3.401993-17.009966 0-6.803987 3.401993-10.20598 10.20598-10.20598 13.607973v68.039868c0 6.803987 3.401993 13.607973 10.20598 13.607973 6.803987 3.401993 13.607973 3.401993 17.009966 0l40.823921-27.215947 40.82392 27.215947c3.401993 3.401993 6.803987 3.401993 10.20598 3.401993 3.401993 0 6.803987 0 6.803987-3.401993 6.803987-3.401993 10.20598-10.20598 10.20598-13.607973v-68.039868c0-6.803987-3.401993-13.607973-10.20598-13.607973-3.401993-3.401993-10.20598-3.401993-17.009967 0z"  /><path fill="#dbdbdb" d="M847.107685 755.242525l-139.481727-71.441861c-6.803987-3.401993-17.009967 0-23.813954 6.803987l-170.099667 278.963455-173.501661-282.365448c-3.401993-6.803987-13.607973-10.20598-20.411961-6.803987l-142.883721 68.039867c-6.803987 3.401993-10.20598 13.607973-10.20598 20.41196 13.607973 37.421927 34.019934 108.863787 37.421927 231.335549 3.401993 13.607973 10.20598 20.41196 20.41196 20.41196h578.338871c10.20598 0 17.009967-6.803987 17.009967-17.009967 3.401993-119.069767 20.41196-190.511628 37.421927-227.933555 3.401993-6.803987 0-17.009967-10.205981-20.41196zM734.841905 918.538206h-68.039867c-10.20598 0-17.009967-6.803987-17.009967-17.009967s6.803987-17.009967 17.009967-17.009967h68.039867c10.20598 0 17.009967 6.803987 17.009967 17.009967s-6.803987 17.009967-17.009967 17.009967z"  /><path fill="#dbdbdb" d="M207.532935 387.827243v17.009966c0 57.833887 27.215947 102.059801 61.23588 102.059801C306.190742 629.368771 408.250543 714.418605 513.712337 714.418605c105.461794 0 207.521595-91.853821 244.943521-217.727575 34.019934 0 61.23588-44.225914 61.235881-102.059801v-17.009967-20.41196-17.009966c3.401993-13.607973 0-23.813953 0-34.019934v-17.009967C819.891739 125.873754 694.017984 0 530.722303 0 343.612669 0 210.934928 119.069767 210.934928 289.169435v68.039867c-3.401993 10.20598-3.401993 20.41196-3.401993 30.617941z m581.740863-13.607974v20.41196c0 40.82392-17.009967 68.039867-27.215946 68.039867h-3.401994c-3.401993-3.401993-10.20598-3.401993-17.009967 0-3.401993 3.401993-10.20598 6.803987-10.20598 10.20598-30.61794 119.069767-122.471761 207.521595-217.727574 207.521595-98.657807 0-190.511628-85.049834-217.727575-200.717608 0-6.803987-3.401993-10.20598-10.20598-10.20598h-6.803987c-3.401993 0-6.803987 0-10.20598 3.401993h-3.401993c-10.20598 0-27.215947-27.215947-27.215947-68.039867v-20.41196-10.20598h54.431894c10.20598 0 17.009967-6.803987 17.009966-17.009967 0-44.225914 6.803987-88.451827 13.607974-108.863787 0-3.401993 3.401993-6.803987 3.401993-10.20598h47.627907c54.431894 0 85.049834-20.41196 95.255814-44.225914 40.82392 37.421927 122.471761 71.44186 214.325581 74.843854 6.803987 37.421927 30.61794 88.451827 34.019934 91.853821 3.401993 6.803987 10.20598 10.20598 13.607973 10.20598l57.833887 3.401993z"  /><path fill="#dbdbdb" d="M449.074463 391.229236c0-10.20598-6.803987-17.009967-17.009967-17.009967h-34.019933c-10.20598 0-17.009967 6.803987-17.009967 17.009967s6.803987 17.009967 17.009967 17.009967h34.019933c6.803987 0 17.009967-6.803987 17.009967-17.009967zM636.184097 374.219269h-34.019933c-10.20598 0-17.009967 6.803987-17.009967 17.009967s6.803987 17.009967 17.009967 17.009967h34.019933c10.20598 0 17.009967-6.803987 17.009967-17.009967s-10.20598-17.009967-17.009967-17.009967z"  /></svg>